<?xml version="1.0" encoding="UTF-8" standalone="no"?>
<!DOCTYPE svg PUBLIC "-//W3C//DTD SVG 1.1//EN" "http://www.w3.org/Graphics/SVG/1.1/DTD/svg11.dtd">
<!-- Created with Vectornator (http://vectornator.io/) -->
<svg height="100%" stroke-miterlimit="10" style="fill-rule:nonzero;clip-rule:evenodd;stroke-linecap:round;stroke-linejoin:round;" version="1.1" viewBox="0 0 1024 1024" width="100%" xml:space="preserve" xmlns="http://www.w3.org/2000/svg" xmlns:vectornator="http://vectornator.io" xmlns:xlink="http://www.w3.org/1999/xlink">
<defs/>
<g id="Layer-1" vectornator:layerName="Layer 1">
<path d="M445.035 229.883C445.035 229.883 419.276 211.971 401.501 221.839C383.725 231.706 370.24 247.936 369.928 264.871C369.615 281.805 387.714 290.656 392.236 291.246" fill="#7de3fc" fill-rule="nonzero" opacity="1" stroke="#000000" stroke-linecap="butt" stroke-linejoin="round" stroke-width="3.10927" vectornator:layerName="Curve 2"/>
<path d="M662.922 303.111C662.922 303.111 685.365 281.654 681.784 261.568C678.203 241.483 667.338 223.796 651.656 218.749C635.973 213.702 623.776 226.995 621.797 231.236" fill="#7de3fc" fill-rule="nonzero" opacity="1" stroke="#000000" stroke-linecap="butt" stroke-linejoin="round" stroke-width="3.10927" vectornator:layerName="Curve 3"/>
<path d="M390.604 292.714C390.604 292.714 385.367 245.938 454.496 225.567C493.456 214.086 550.203 212.408 596.874 221.731C658.56 234.054 662.712 294.325 662.712 294.325C662.712 294.325 662.446 357.426 662.105 438.625C661.764 519.824 661.346 619.12 661.346 619.12C661.346 619.12 655.165 687.063 604.923 707.045C549.184 729.212 497.931 735.465 444.826 701.167C386.269 663.348 385.374 625.825 385.374 625.825L390.604 292.714Z" fill="#7de3fc" fill-rule="nonzero" opacity="1" stroke="#000000" stroke-linecap="butt" stroke-linejoin="round" stroke-width="3.10927" vectornator:layerName="Curve 1"/>
<path d="M465.328 294.384C488.335 293.873 507.381 310.044 507.87 330.502C508.358 350.96 490.103 367.958 467.096 368.469C444.089 368.98 425.043 352.81 424.555 332.352C424.066 311.894 442.321 294.895 465.328 294.384Z" fill="#ffffff" fill-rule="nonzero" opacity="1" stroke="#000000" stroke-linecap="butt" stroke-linejoin="round" stroke-width="3.10927" vectornator:layerName="Oval 1"/>
<path d="M443.486 328.366C448.375 328.257 452.43 332.027 452.544 336.785C452.657 341.543 448.786 345.489 443.898 345.597C439.009 345.706 434.954 341.936 434.841 337.178C434.727 332.42 438.598 328.474 443.486 328.366Z" fill="#000000" fill-rule="nonzero" opacity="1" stroke="#000000" stroke-linecap="butt" stroke-linejoin="round" stroke-width="3.10927" vectornator:layerName="Oval 2"/>
<path d="M448.699 340.059C449.27 340.046 449.74 340.312 449.748 340.654C449.756 340.995 449.3 341.282 448.729 341.295C448.158 341.308 447.688 341.041 447.68 340.7C447.672 340.358 448.128 340.071 448.699 340.059Z" fill="#ffffff" fill-rule="nonzero" opacity="1" stroke="#ffffff" stroke-linecap="butt" stroke-linejoin="round" stroke-width="3.10927" vectornator:layerName="Oval 3"/>
<path d="M588.99 296.693C611.996 296.183 631.043 312.353 631.531 332.811C632.019 353.269 613.764 370.268 590.758 370.778C567.751 371.289 548.704 355.119 548.216 334.661C547.728 314.203 565.983 297.204 588.99 296.693Z" fill="#ffffff" fill-rule="nonzero" opacity="1" stroke="#000000" stroke-linecap="butt" stroke-linejoin="round" stroke-width="3.10927" vectornator:layerName="Oval 4"/>
<path d="M567.148 330.675C572.036 330.567 576.091 334.336 576.205 339.094C576.319 343.853 572.448 347.798 567.559 347.906C562.671 348.015 558.616 344.246 558.502 339.487C558.388 334.729 562.259 330.784 567.148 330.675Z" fill="#000000" fill-rule="nonzero" opacity="1" stroke="#000000" stroke-linecap="butt" stroke-linejoin="round" stroke-width="3.10927" vectornator:layerName="Oval 5"/>
<path d="M572.361 342.368C572.932 342.355 573.401 342.622 573.409 342.963C573.417 343.305 572.961 343.592 572.39 343.604C571.819 343.617 571.349 343.35 571.341 343.009C571.333 342.668 571.789 342.381 572.361 342.368Z" fill="#ffffff" fill-rule="nonzero" opacity="1" stroke="#ffffff" stroke-linecap="butt" stroke-linejoin="round" stroke-width="3.10927" vectornator:layerName="Oval 6"/>
<path d="M513.632 399.361C513.632 399.361 500.735 402.889 497.431 410.118C494.126 417.346 496.564 427.241 496.564 427.241C496.564 427.241 504.391 434.669 513.748 433.343C523.104 432.018 525.983 426.364 530.24 425.04C534.497 423.716 542.542 430.58 548.759 433.684C554.976 436.788 563.942 429.658 563.942 429.658C563.942 429.658 572.921 415.373 567.294 409.014C560.801 401.674 556.691 400.613 543.393 398.253C530.095 395.893 513.632 399.361 513.632 399.361Z" fill="#ffd6b8" fill-rule="nonzero" opacity="1" stroke="#000000" stroke-linecap="butt" stroke-linejoin="round" stroke-width="3.10927" vectornator:layerName="Curve 4"/>
<path d="M528.46 387.009C539.081 386.773 547.762 389.564 547.85 393.244C547.938 396.923 539.399 400.097 528.778 400.332C518.156 400.568 509.475 397.777 509.387 394.097C509.299 390.418 517.838 387.244 528.46 387.009Z" fill="#000000" fill-rule="nonzero" opacity="1" stroke="#000000" stroke-linecap="butt" stroke-linejoin="round" stroke-width="3.10927" vectornator:layerName="Oval 7"/>
<path d="M512.307 434.268C511.863 445.877 517.49 454.914 517.49 454.914C517.49 454.914 531.234 461.452 531.379 452.402C531.523 443.352 532.385 426.545 532.69 426.741L532.6 453.187C532.6 453.187 531.003 456.818 536.92 457.846C542.837 458.875 550.364 456.852 551.486 453.464C552.607 450.075 554.269 434.033 554.269 434.033C554.269 434.033 552.069 426.253 541.578 426.312C531.088 426.371 512.752 422.66 512.307 434.268Z" fill="#ffffff" fill-opacity="0.993394" fill-rule="nonzero" opacity="1" stroke="#000000" stroke-linecap="butt" stroke-linejoin="round" stroke-width="3.10927" vectornator:layerName="Curve 5"/>
</g>
<g id="Layer-2" vectornator:layerName="Layer 2">
<path d="M356.017 514.59L361.391 739.773L691.544 743.404L689.84 587.028L687.728 498.552L356.017 514.59Z" fill="#0b6479" fill-rule="nonzero" opacity="1" stroke="#000000" stroke-linecap="butt" stroke-linejoin="round" stroke-width="3.10927" vectornator:layerName="Curve 4"/>
<path d="M423.644 473.991C523.901 471.765 612.891 464.394 677.79 475.036C700.318 478.73 711.075 492.742 711.075 492.742C711.075 492.742 718.08 504.3 718.266 513.973C718.333 517.473 716.186 528.383 714.883 530.929C701.878 556.349 679.71 555.495 679.71 555.495C679.71 555.495 446.922 568.067 369.675 550.863C332.907 542.675 345.229 502.198 355.09 487.596C365.947 471.52 392.277 474.687 423.644 473.991Z" fill="#ffffff" fill-rule="nonzero" opacity="1" stroke="#000000" stroke-linecap="butt" stroke-linejoin="round" stroke-width="3.10927" vectornator:layerName="Curve 1"/>
<path d="M401.112 476.743C399.247 497.07 397.711 498.346 405.366 507.284C413.022 516.221 421.258 511.728 424.269 509.27C427.281 506.812 426.795 479.669 426.738 477.28L426.037 474.507C426.037 474.507 401.743 469.87 401.112 476.743Z" fill="#ffd6b8" fill-rule="nonzero" opacity="1" stroke="#000000" stroke-linecap="butt" stroke-linejoin="round" stroke-width="3.10927" vectornator:layerName="Curve 6"/>
<path d="M413.452 497.997L413.963 512.636" fill="#ffffff" fill-rule="nonzero" opacity="1" stroke="#000000" stroke-linecap="butt" stroke-linejoin="round" stroke-width="3.10927" vectornator:layerName="Curve 9"/>
<path d="M609.278 473.589C607.413 493.916 605.876 495.192 613.532 504.129C621.188 513.067 629.424 508.574 632.435 506.116C635.447 503.658 634.961 476.515 634.904 474.125L634.203 471.353C634.203 471.353 609.909 466.716 609.278 473.589Z" fill="#ffd6b8" fill-rule="nonzero" opacity="1" stroke="#000000" stroke-linecap="butt" stroke-linejoin="round" stroke-width="3.10927" vectornator:layerName="Curve 12"/>
<path d="M621.583 493.376L622.094 508.015" fill="#ffffff" fill-rule="nonzero" opacity="1" stroke="#000000" stroke-linecap="butt" stroke-linejoin="round" stroke-width="3.10927" vectornator:layerName="Curve 13"/>
</g>
</svg>
